<svg xmlns="http://www.w3.org/2000/svg" width="308.91" height="32"><defs><style>.a{fill:#f4e6d4}</style></defs><path class="a" d="M91.07 15.46a1.25 1.25 0 0 0-.42-.3 1.26 1.26 0 0 0-.55-.11 1.32 1.32 0 0 0-.57.11 1.23 1.23 0 0 0-.44.3 1.33 1.33 0 0 0-.29.47 1.74 1.74 0 0 0-.11.61 1.7 1.7 0 0 0 .11.61 1.35 1.35 0 0 0 .3.47 1.31 1.31 0 0 0 .46.3 1.54 1.54 0 0 0 .58.11 2.11 2.11 0 0 0 .62-.09 1.61 1.61 0 0 0 .55-.31l-.31-.44a1.5 1.5 0 0 1-.39.22 1.14 1.14 0 0 1-.72 0 .75.75 0 0 1-.25-.13.62.62 0 0 1-.19-.23.81.81 0 0 1-.11-.32h2.09V16.5a1.66 1.66 0 0 0-.1-.61 1.29 1.29 0 0 0-.26-.43zm-1.73.84a1.23 1.23 0 0 1 .08-.29.69.69 0 0 1 .16-.22.55.55 0 0 1 .22-.14.84.84 0 0 1 .29-.05.65.65 0 0 1 .48.18.85.85 0 0 1 .24.52zm-1.22 1l.21.52a2.1 2.1 0 0 1-.26.13 1.46 1.46 0 0 1-.48.08 1 1 0 0 1-.75-.27 1.12 1.12 0 0 1-.27-.83v-1.25H86v-.56h.57v-.85h.62v.85h1v.56h-1v1.24a.88.88 0 0 0 0 .24.49.49 0 0 0 .1.16.33.33 0 0 0 .14.1.57.57 0 0 0 .18 0 .79.79 0 0 0 .29-.06.66.66 0 0 0 .22-.06zm5.65-2.23h.15l-.18.59h-.37a.59.59 0 0 0-.27 0 .48.48 0 0 0-.22.15.73.73 0 0 0-.13.23.88.88 0 0 0 0 .33V18h-.57v-2.88h.56v.37a1.06 1.06 0 0 1 .35-.35 1.19 1.19 0 0 1 .47-.09 1.06 1.06 0 0 1 .21.02zm-8.23 2a.87.87 0 0 1-.08.37.83.83 0 0 1-.26.3 1.24 1.24 0 0 1-.4.19 2.23 2.23 0 0 1-.55.07H84a1.81 1.81 0 0 1-.31-.05 2.13 2.13 0 0 1-.33-.11 1.5 1.5 0 0 1-.32-.19l.29-.46.16.11.21.09a.92.92 0 0 0 .25.06 1.42 1.42 0 0 0 .31 0 .9.9 0 0 0 .48-.1.27.27 0 0 0 .16-.25.24.24 0 0 0-.11-.2 1 1 0 0 0-.38-.11h-.29a1.33 1.33 0 0 1-.72-.28.69.69 0 0 1-.24-.55.79.79 0 0 1 .08-.38.7.7 0 0 1 .23-.28 1.06 1.06 0 0 1 .37-.18 1.49 1.49 0 0 1 .49-.07 2.59 2.59 0 0 1 .63.08 1.83 1.83 0 0 1 .51.22l-.26.48-.16-.08-.21-.08-.24-.06h-.27a.7.7 0 0 0-.39.09.3.3 0 0 0-.14.25.16.16 0 0 0 0 .12.24.24 0 0 0 .09.08.94.94 0 0 0 .15.06h.48a1.6 1.6 0 0 1 .72.27.68.68 0 0 1 .3.62zm-6.65-1.38a1.34 1.34 0 0 1 .08.46V18h-.6v-1.62a.82.82 0 0 0-.17-.55.58.58 0 0 0-.47-.19.66.66 0 0 0-.28 0 .64.64 0 0 0-.22.14.61.61 0 0 0-.15.23.83.83 0 0 0-.06.32V18h-.6v-1.62a.82.82 0 0 0-.17-.55.58.58 0 0 0-.47-.19.75.75 0 0 0-.5.19.76.76 0 0 0-.15.23.83.83 0 0 0-.06.32V18h-.6v-2.88h.59v.35a1.29 1.29 0 0 1 .19-.21l.21-.13a1 1 0 0 1 .23-.06.82.82 0 0 1 .22 0 1.16 1.16 0 0 1 .56.13 1 1 0 0 1 .38.37 1 1 0 0 1 .21-.25 1.35 1.35 0 0 1 .26-.15 1.07 1.07 0 0 1 .27-.08h.26a1.25 1.25 0 0 1 .45.08 1.11 1.11 0 0 1 .36.23 1.31 1.31 0 0 1 .23.32zm15.91.45a1.06 1.06 0 0 0-.06.37 1.1 1.1 0 0 0 .06.37.92.92 0 0 0 .19.28.77.77 0 0 0 .28.19 1 1 0 0 0 .35.07 1.23 1.23 0 0 0 .39-.07.83.83 0 0 0 .3-.18l.3.5a1.71 1.71 0 0 1-1 .33 1.63 1.63 0 0 1-1.09-.43 1.38 1.38 0 0 1-.31-.47 1.51 1.51 0 0 1 0-1.18 1.38 1.38 0 0 1 .31-.47 1.49 1.49 0 0 1 .49-.32 1.64 1.64 0 0 1 .6-.11 1.74 1.74 0 0 1 .61.11 1.57 1.57 0 0 1 .38.22l-.3.5a.83.83 0 0 0-.3-.18 1 1 0 0 0-.39-.07.84.84 0 0 0-.35.07.75.75 0 0 0-.28.18 1 1 0 0 0-.18.32zm-13-.7a1.08 1.08 0 0 0-.36-.31 1.22 1.22 0 0 0-.53-.11 1.46 1.46 0 0 0-.55.11 1.39 1.39 0 0 0-.45.31 1.35 1.35 0 0 0-.3.47 1.69 1.69 0 0 0 0 1.2 1.35 1.35 0 0 0 .3.47 1.57 1.57 0 0 0 .45.31 1.46 1.46 0 0 0 .55.11 1.22 1.22 0 0 0 .53-.11 1.08 1.08 0 0 0 .36-.31V18h.62v-2.88h-.62zm0 1.43a.92.92 0 0 1-.17.29 1 1 0 0 1-.27.19 1 1 0 0 1-.35.07.8.8 0 0 1-.36-.08.66.66 0 0 1-.27-.19.92.92 0 0 1-.17-.29 1 1 0 0 1-.06-.35 1 1 0 0 1 .06-.35.92.92 0 0 1 .17-.29.79.79 0 0 1 .27-.2 1 1 0 0 1 .36-.07.81.81 0 0 1 .35.07 1 1 0 0 1 .27.19.92.92 0 0 1 .17.29 1.11 1.11 0 0 1 0 .72zM112.42 0H67.65a3.23 3.23 0 0 0-3.23 3.23v25.54A3.23 3.23 0 0 0 67.65 32h44.77a3.23 3.23 0 0 0 3.23-3.23V3.23A3.23 3.23 0 0 0 112.42 0zm-15.5 27.09A11.08 11.08 0 0 1 90 24.7a11.09 11.09 0 1 1 0-17.4 11.09 11.09 0 1 1 6.88 19.79zm7.18-12a1.47 1.47 0 0 0-.56.11 1.39 1.39 0 0 0-.45.31 1.35 1.35 0 0 0-.3.47 1.69 1.69 0 0 0 0 1.2 1.35 1.35 0 0 0 .3.47 1.57 1.57 0 0 0 .45.31 1.47 1.47 0 0 0 .56.11 1.21 1.21 0 0 0 .52-.11 1.12 1.12 0 0 0 .37-.31V18h.62v-4H105v1.5a1.12 1.12 0 0 0-.37-.31 1.21 1.21 0 0 0-.53-.14zm.86 1.13a1 1 0 0 1 0 .72.92.92 0 0 1-.17.29 1 1 0 0 1-.27.19 1 1 0 0 1-.35.07.86.86 0 0 1-.36-.08.83.83 0 0 1-.27-.19.9.9 0 0 1-.16-.29 1 1 0 0 1-.06-.35 1 1 0 0 1 .06-.35.9.9 0 0 1 .16-.29.8.8 0 0 1 .63-.27.78.78 0 0 1 .35.07 1 1 0 0 1 .27.19.92.92 0 0 1 .21.25zm-5.68-.71a1.12 1.12 0 0 0-.37-.31 1.17 1.17 0 0 0-.52-.11 1.47 1.47 0 0 0-.56.11 1.39 1.39 0 0 0-.45.31 1.35 1.35 0 0 0-.3.47 1.69 1.69 0 0 0 0 1.2 1.35 1.35 0 0 0 .3.47 1.57 1.57 0 0 0 .45.31 1.47 1.47 0 0 0 .56.11 1.17 1.17 0 0 0 .52-.11 1.12 1.12 0 0 0 .37-.31V18h.62v-2.88h-.62zm0 1.43a.92.92 0 0 1-.17.29.88.88 0 0 1-.27.19 1 1 0 0 1-.35.07.86.86 0 0 1-.36-.08.7.7 0 0 1-.26-.19.77.77 0 0 1-.17-.29 1 1 0 0 1-.06-.35 1 1 0 0 1 .06-.35.77.77 0 0 1 .17-.29.86.86 0 0 1 .26-.2 1 1 0 0 1 .36-.07.78.78 0 0 1 .35.07.88.88 0 0 1 .27.19.92.92 0 0 1 .17.29 1 1 0 0 1 0 .72zm3.11-1.83h.15l-.18.59h-.37a.59.59 0 0 0-.27 0 .48.48 0 0 0-.22.15.73.73 0 0 0-.13.23.88.88 0 0 0-.06.33V18h-.56v-2.88h.56v.37a1.06 1.06 0 0 1 .35-.35 1.19 1.19 0 0 1 .47-.09 1.06 1.06 0 0 1 .23.02zm101.05-1.62a1.33 1.33 0 0 1-.36.78 1.12 1.12 0 0 1-.6.31 4.59 4.59 0 0 1-.92.06H201l.35-2.17a.27.27 0 0 1 .26-.23h.23a2.93 2.93 0 0 1 1.16.14.83.83 0 0 1 .26.19.85.85 0 0 1 .17.49 2 2 0 0 1 .01.43zM225 12.25h-.23a.27.27 0 0 0-.26.23l-.35 2.17h.49a4.64 4.64 0 0 0 .92-.06h.06a1.21 1.21 0 0 0 .59-.31.52.52 0 0 0 .1-.11l.09-.13a1.91 1.91 0 0 0 .16-.54 1.08 1.08 0 0 0-.15-.91c-.34-.34-.89-.34-1.42-.34zm-14.39 3.61a1.14 1.14 0 0 0-.25-.49 1.28 1.28 0 0 0-1-.42 1.71 1.71 0 0 0-1.53.89 1.84 1.84 0 0 0-.16.41v.16a1.21 1.21 0 0 0 1.16 1.59 1.72 1.72 0 0 0 1.36-.62 1.84 1.84 0 0 0 .39-.86 1.55 1.55 0 0 0-.02-.66zm22.84-.49a1 1 0 0 0-.44-.31 1.38 1.38 0 0 0-.59-.11 1.74 1.74 0 0 0-1.74 1.49v.31a1.16 1.16 0 0 0 .27.78 1.32 1.32 0 0 0 1 .42 1.72 1.72 0 0 0 1.36-.62 1.94 1.94 0 0 0 .25-.42 2.06 2.06 0 0 0 .14-.44 1.37 1.37 0 0 0-.3-1.1zm11.04-12.14v25.54a3.23 3.23 0 0 1-3.23 3.23h-44.77a3.23 3.23 0 0 1-3.23-3.23V3.23A3.23 3.23 0 0 1 196.49 0h44.77a3.23 3.23 0 0 1 3.23 3.23zm-39.4 12a2.8 2.8 0 0 0 .33-.53 2.09 2.09 0 0 0 .14-.3 5.09 5.09 0 0 0 .27-1 3.52 3.52 0 0 0 .06-.63 2.59 2.59 0 0 0-.15-.91 1.89 1.89 0 0 0-.32-.55 1.7 1.7 0 0 0-.19-.19 3.25 3.25 0 0 0-2.17-.64h-3.24a.48.48 0 0 0-.39.23.88.88 0 0 0-.05.15l-1.31 8.31v.06a.39.39 0 0 0 .06.15.25.25 0 0 0 .12.07h1.62a.41.41 0 0 0 .16 0 .46.46 0 0 0 .26-.27v-.08l.14-.94.21-1.3v-.13l.06-.08a.45.45 0 0 1 .19-.14.41.41 0 0 1 .16 0h1a3.81 3.81 0 0 0 2.52-.77 3.51 3.51 0 0 0 .52-.5zm7.67.09l.24-1.57a.27.27 0 0 0-.26-.31H211.01a.61.61 0 0 0-.07.1.14.14 0 0 0 0 .07v.43-.08l-.06-.08a1.1 1.1 0 0 0-.45-.37 3 3 0 0 0-1.38-.28 3.51 3.51 0 0 0-3.33 2.6 3 3 0 0 0-.13.52 3.82 3.82 0 0 0 0 .67 2.71 2.71 0 0 0 .41 1.78 1.8 1.8 0 0 0 .38.35 2.43 2.43 0 0 0 .35.2 3.1 3.1 0 0 0 3.37-.65l-.07.44a.23.23 0 0 0 .09.23.25.25 0 0 0 .18.08h1.39a.43.43 0 0 0 .4-.25.69.69 0 0 0 0-.13zm3.27 6l5.19-7.48a.27.27 0 0 0-.23-.42h-1.76a.49.49 0 0 0-.17.15l-2.15 3.16-.91-3a.31.31 0 0 0-.06-.13.44.44 0 0 0-.37-.19H214a.33.33 0 0 0-.14 0 .27.27 0 0 0-.11.32l.3.9 1.41 4.13-.77 1.24-.8 1.14a.24.24 0 0 0 0 .14v.07a.28.28 0 0 0 .27.22h1.55a.45.45 0 0 0 .29-.22zm12.89-8a2.47 2.47 0 0 0-.41-2.09l-.19-.19a3.25 3.25 0 0 0-2.17-.64h-3.24a.43.43 0 0 0-.33.17.36.36 0 0 0-.11.21l-1.31 8.31a.27.27 0 0 0 .27.31h1.66a.32.32 0 0 0 .31-.27l.37-2.35a.44.44 0 0 1 .44-.38h1a6.06 6.06 0 0 0 .76-.05 4.67 4.67 0 0 0 .67-.14l.3-.11a3.19 3.19 0 0 0 .55-.29l.24-.18a3.66 3.66 0 0 0 1.19-2.26zm7.17.39a.27.27 0 0 0-.13-.27.28.28 0 0 0-.13 0h-1.64a.28.28 0 0 0-.18.22v.43l-.07-.11v-.05a1.23 1.23 0 0 0-.33-.31 2.85 2.85 0 0 0-1.5-.34 3.57 3.57 0 0 0-3.46 3.12 3.36 3.36 0 0 0 0 1.23 2.57 2.57 0 0 0 .55 1.15 1.8 1.8 0 0 0 .19.2 1.93 1.93 0 0 0 .54.35 3.1 3.1 0 0 0 3.33-.61l-.07.44v.06a.32.32 0 0 0 .13.21.29.29 0 0 0 .14 0h1.39a.43.43 0 0 0 .4-.25.69.69 0 0 0 0-.13zm3.59-3a.27.27 0 0 0-.26-.32h-1.5a.28.28 0 0 0-.27.23l-.69 4.4-.63 4.06a.27.27 0 0 0 .26.31h1.34a.45.45 0 0 0 .39-.23.44.44 0 0 0 .05-.15zM41.67 17.83H39l1.69-4.68.44 2.07zm9.56-14.6v25.54A3.23 3.23 0 0 1 48 32H3.23A3.23 3.23 0 0 1 0 28.77V3.23A3.23 3.23 0 0 1 3.23 0H48a3.23 3.23 0 0 1 3.23 3.23zm-35.64 19l5.22-12.45h-3.39L16 13.27l-2 5-1.36-7.22a1.51 1.51 0 0 0-1.49-1.27H5.73l-.07.36a18.23 18.23 0 0 1 1.92.54l.42.15c.31.12.6.25.84.37l.11.07a1.13 1.13 0 0 1 .29.23l.09.12a1.93 1.93 0 0 1 .26.68l2.58 10zm7.17 0l2.66-12.45H22.2l-2.1 9.8-.57 2.67h3.23zM33 21a3.82 3.82 0 0 0 1.2-2.81c0-3.29-4.56-3.47-4.52-4.94a.78.78 0 0 1 .19-.5l.14-.15a2 2 0 0 1 1-.4 6.14 6.14 0 0 1 3.18.56l.57-2.64a8.51 8.51 0 0 0-.89-.28 7.78 7.78 0 0 0-.87-.19 7.88 7.88 0 0 0-1.24-.1c-2.31 0-4.12.9-4.95 2.31a3.73 3.73 0 0 0-.5 1.82 2.9 2.9 0 0 0 .95 2.14 5.67 5.67 0 0 0 1.16.87c.24.14.49.27.72.38s.36.18.51.27c.86.46 1.16.82 1.16 1.28a1 1 0 0 1-.45.81l-.13.08a3 3 0 0 1-1.31.3 6.79 6.79 0 0 1-3.31-.79l-.13.61-.48 2.15.26.11a1.35 1.35 0 0 0 .24.08 6.07 6.07 0 0 0 .59.17 11.92 11.92 0 0 0 1.38.24c.36 0 .74.06 1.12.07A6.32 6.32 0 0 0 33 21zm12.6 1.26l-1-4.93L43 9.78h-2.78a1.46 1.46 0 0 0-1.37.92L34 22.25h3.38l.47-1.25.22-.61h4.14l.39 1.86z"/><path class="a" d="M149.6 20.12L149.5 20.23 150.73 21.62 151.31 22.27 151.31 18.3 149.6 20.12z"/><path class="a" d="M135.34 12.08L136.97 12.08 136.16 10.14 135.34 12.08z"/><path class="a" d="M154.72 19.39a.68.68 0 0 0-.05-.27.44.44 0 0 0-.14-.18.79.79 0 0 0-.51-.14h-1.56v1.25H154a.75.75 0 0 0 .51-.17.77.77 0 0 0 .14-.21.82.82 0 0 0 .07-.28z"/><path class="a" d="M164.09 10.14L163.29 12.08 164.9 12.08 164.33 10.71 164.09 10.14z"/><path class="a" d="M176.84 0h-44.77a3.23 3.23 0 0 0-3.23 3.23v25.54a3.23 3.23 0 0 0 3.23 3.23h44.77a3.23 3.23 0 0 0 3.23-3.23V3.23A3.23 3.23 0 0 0 176.84 0zm-18.13 11.79a4.29 4.29 0 0 1 .13-1 2.11 2.11 0 0 1 .19-.47 1.8 1.8 0 0 1 .32-.42 2.43 2.43 0 0 1 1.8-.57h1.11v1.07h-1.4l-.24.05a1 1 0 0 0-.39.21v.06a1.62 1.62 0 0 0-.27 1.06 1.79 1.79 0 0 0 .31 1.18l.08.05a.53.53 0 0 0 .15.08 1.5 1.5 0 0 0 .58.1h.53l1.68-3.87H165l.72 1.69 1.26 3V9.29h1.82l2.07 3.42V9.29h1.2v4.92h-1.68l-2.22-3.69v3.69h-2.38l-.46-1.08h-2.45l-.29.68-.17.4H161a2.56 2.56 0 0 1-1.73-.55 2.37 2.37 0 0 1-.56-1.27 3.7 3.7 0 0 1 0-.6zm-1.78-2.5h1.19v4.92h-1.19zm-10.18 4.92V9.29h3.94v1h-2.75v.88h2.71v1h-2.71v1h2.75v1h-3.94zm-4.8 0l-.62-1.37-1.1-2.48v3.85h-2.4l-.44-1.08h-2.48l-.18.45-.26.63h-1.26l.9-2.11 1.21-2.81h1.74l2 4.65V9.29H141l1.54 3.34L144 9.29h1.92v4.92h-1.19v-3.85l-1.11 2.48-.62 1.37h-1zM155 20.88a3.17 3.17 0 0 1-1 .12h-1.49v1.65h-2.27l-1.45-1.61-.75.8-.75.81h-4.67v-4.88h4.75l1.42 1.62.79-.83.74-.79H154a3 3 0 0 1 .95.14 1.41 1.41 0 0 1 1 1.48 1.41 1.41 0 0 1-.95 1.49zm.95-8.52a1 1 0 0 1 .21.6 2.53 2.53 0 0 1 0 .28v1H155v-.62a2.67 2.67 0 0 0-.05-.73.91.91 0 0 0-.11-.22 1.32 1.32 0 0 0-.88-.2h-1.27v1.78h-1.15V9.29h2.69a2.71 2.71 0 0 1 1.41.22 1.37 1.37 0 0 1 .26.2 1.16 1.16 0 0 1 .37.92 1.41 1.41 0 0 1-.85 1.31 1.39 1.39 0 0 1 .58.42zm5.05 8.48a1.24 1.24 0 0 1 .17.6 2.81 2.81 0 0 1 0 .3v1H160v-.64a1.63 1.63 0 0 0-.2-1 .82.82 0 0 0-.53-.2h-1.58v1.8h-1.19v-4.93h2.69a5 5 0 0 1 .81.05 1.89 1.89 0 0 1 .64.19h.07a1.19 1.19 0 0 1 .37.37 1.49 1.49 0 0 1 .14.68 1.4 1.4 0 0 1-.29.9 1.23 1.23 0 0 1-.55.41 1.08 1.08 0 0 1 .49.3zm4.83-3.07v1h-2.76v.9h2.71v1h-2.71v1h2.76v1H162v-4.9h3.92zm4.58 4.33a1 1 0 0 1-.21.21 2.16 2.16 0 0 1-1.38.38h-2.27v-1h2.27a.8.8 0 0 0 .46-.11.5.5 0 0 0 .14-.32.51.51 0 0 0-.14-.35.48.48 0 0 0-.16-.08.93.93 0 0 0-.26 0c-1.09 0-2.46 0-2.46-1.52a1.53 1.53 0 0 1 .2-.77 1.59 1.59 0 0 1 1.49-.7h2.34v1.05h-2.16a1 1 0 0 0-.4.05h-.06a.57.57 0 0 0-.15.17.73.73 0 0 0 0 .22.38.38 0 0 0 .07.22.37.37 0 0 0 .17.13 2.12 2.12 0 0 0 .45.07h.65a2.41 2.41 0 0 1 1.12.22 1.56 1.56 0 0 1 .25.17 1.25 1.25 0 0 1 .08.12 1.18 1.18 0 0 1 .11.19 1.77 1.77 0 0 1 .16.75 1.55 1.55 0 0 1-.27.9zm4.75-.27a1.17 1.17 0 0 1-.15.27 1.43 1.43 0 0 1-.32.28 2.34 2.34 0 0 1-1.27.31h-2.27v-1h2.27a.68.68 0 0 0 .45-.11.46.46 0 0 0 .15-.32.48.48 0 0 0-.15-.35.59.59 0 0 0-.42-.11 4.87 4.87 0 0 1-1.63-.19 1.29 1.29 0 0 1-.33-.17 1.32 1.32 0 0 1-.49-1.16 1.43 1.43 0 0 1 .38-1 1.73 1.73 0 0 1 1.3-.47h2.35v1.05h-2.16a1.18 1.18 0 0 0-.37 0h-.09a.52.52 0 0 0-.18.39.38.38 0 0 0 .23.35 2.63 2.63 0 0 0 .39.06h.71a3 3 0 0 1 .45 0 2 2 0 0 1 .68.19 2.2 2.2 0 0 1 .25.17 1.25 1.25 0 0 1 .08.12 1.42 1.42 0 0 1 .19.39 2.13 2.13 0 0 1 .08.55 1.75 1.75 0 0 1-.09.75z"/><path class="a" d="M159.74 19.81a.58.58 0 0 0 .17-.21.65.65 0 0 0 .06-.29.49.49 0 0 0-.06-.25.4.4 0 0 0-.17-.17 1.13 1.13 0 0 0-.57-.09h-1.43v1.12h1.43a1.52 1.52 0 0 0 .57-.11z"/><path class="a" d="M146.67 18.8L143.72 18.8 143.72 19.7 146.33 19.7 146.33 19.7 146.33 20.69 146.33 20.69 143.72 20.69 143.72 21.68 146.64 21.68 147.88 20.34 147.98 20.23 146.67 18.8z"/><path class="a" d="M154.66 10.38a1.76 1.76 0 0 0-.53-.06h-1.45v1.08h1.45a1.19 1.19 0 0 0 .48-.07h.11a.31.31 0 0 0 .16-.16.64.64 0 0 0 .06-.28.51.51 0 0 0-.22-.46zm116.41 4.31h1.5a3.83 3.83 0 0 0 0-1c-.14-.23-.43-.43-1.42-.43a2.31 2.31 0 0 0-1.77.56l-.67-.61-.63.61a3.66 3.66 0 0 0-1.81-.61 2.19 2.19 0 0 0-1.23.24.6.6 0 0 0-.12.86 3.17 3.17 0 0 0 1.75.36 3.55 3.55 0 0 1 1.48.24 3.42 3.42 0 0 1 .56.34 2.11 2.11 0 0 1 1.08-.49 5 5 0 0 1 1.28-.07zm18.58-2.22a2 2 0 0 0-1.79.79 3.56 3.56 0 0 0-.55 2 3.45 3.45 0 0 0 .57 2 2 2 0 0 0 1.77.82 1.83 1.83 0 0 0 1.63-.84 3.54 3.54 0 0 0 .55-2 3.63 3.63 0 0 0-.54-2 1.83 1.83 0 0 0-1.64-.77zm-7.79.64a1.73 1.73 0 0 0-1.46.7 1.71 1.71 0 0 0-.26 1h3.48a1.61 1.61 0 0 0-.31-1 1.78 1.78 0 0 0-1.45-.7zm-3.98 1.12a1.07 1.07 0 0 0-.74-.83 2.08 2.08 0 0 0-.75-.14 1.94 1.94 0 0 0-.95.27c-.3.17-.52.4-.53.58 0 .38-.07.77-.09 1.13a3.54 3.54 0 0 0 .16 1.41 1.66 1.66 0 0 0 1.41.69 1.62 1.62 0 0 0 1.12-.37 1.07 1.07 0 0 0 .38-.61 4.22 4.22 0 0 0 .07-1.13c.04-.32-.05-.65-.08-1zm-7.12 1.66a1.47 1.47 0 0 0-1.12.38.61.61 0 0 0-.07.65c.18.44.62.47 1.08.53a3.56 3.56 0 0 0 1.4-.09c.72-.24.57-1 .52-1.47zm25.84-.54l-1.72.3c-.69.22-1 .61-1 1.17a1.16 1.16 0 0 0 .43.95 1.63 1.63 0 0 0 1.05.36 2.47 2.47 0 0 0 1.65-.57 1.88 1.88 0 0 0 .68-1.51V15a.55.55 0 0 1-.22.16 5 5 0 0 1-.87.19z"/><path class="a" d="M305.68 0h-44.77a3.23 3.23 0 0 0-3.23 3.23v25.54a3.23 3.23 0 0 0 3.23 3.23h44.77a3.23 3.23 0 0 0 3.23-3.23V3.23A3.23 3.23 0 0 0 305.68 0zm-20.9 16h-4.68c0 .63.08.71.3 1a2.07 2.07 0 0 0 1.81.5 2.85 2.85 0 0 0 1.41-.66l1 .75a4.06 4.06 0 0 1-.49.44 3.19 3.19 0 0 1-1.11.54 4.22 4.22 0 0 1-2.39 0 3.32 3.32 0 0 1-1-.55 6 6 0 0 1-.1 1.08 2.3 2.3 0 0 1-1.08 1.7 3.94 3.94 0 0 1-3.71.23 3.14 3.14 0 0 1-1-.73l1.15-.81a2.24 2.24 0 0 0 2.26.47 1.38 1.38 0 0 0 1-1.08V18a3.21 3.21 0 0 1-3.41.35c-.16-.11-.4-.31-.4-.31v.65h-1.52V18c-.55.65-1.13.62-1.91.66a2.84 2.84 0 0 1-2.14-.7 3.91 3.91 0 0 1-1.63.63 5.53 5.53 0 0 1-3.74-.59l-.36-.23c-.12-.08-.3-.23-.3-.23l1-.88a3.73 3.73 0 0 0 2.26.84c1.18.08 1.66-.52 1.66-.89a.6.6 0 0 0-.52-.57c-.57-.11-1.12-.11-1.89-.21a2.23 2.23 0 0 1-1.82-1 1.75 1.75 0 0 1-.11-1.51 1.43 1.43 0 0 1 .42-.63 3.4 3.4 0 0 1 2.32-.75 5.45 5.45 0 0 1 2.61.67 4.07 4.07 0 0 1 2.64-.65 3.38 3.38 0 0 1 2.52 1 2.31 2.31 0 0 1 1.16-.78 3.32 3.32 0 0 1 1.62-.14 2.73 2.73 0 0 1 1.33.74V12h1.57v.7a3.33 3.33 0 0 1 2.19-.7 2.89 2.89 0 0 1 3.08 2.83zm7.09 1.84a2.62 2.62 0 0 1-2.22 1 2.74 2.74 0 0 1-1.42-.38 2 2 0 0 1-.89-1.07v3.72h-.81V12h.75v1.27a2.28 2.28 0 0 1 .94-1.07 2.72 2.72 0 0 1 1.46-.39 2.64 2.64 0 0 1 2.23 1 4 4 0 0 1 .77 2.52 4 4 0 0 1-.81 2.48zm7.33.78a2.87 2.87 0 0 1-.52.05c-.39 0-.65-.09-.77-.28a1.55 1.55 0 0 1-.19-.88 3.76 3.76 0 0 1-1 1 2.79 2.79 0 0 1-1.44.32 2.51 2.51 0 0 1-1.61-.49 1.74 1.74 0 0 1-.63-1.46 1.62 1.62 0 0 1 .48-1.29 2.39 2.39 0 0 1 1.1-.55q.61-.13 1.53-.24a6.46 6.46 0 0 0 1.22-.22c.2-.08.3-.33.3-.74a1.2 1.2 0 0 0-.46-1.07 2.37 2.37 0 0 0-1.29-.29 2 2 0 0 0-1.29.38 1.36 1.36 0 0 0-.49 1.16h-.81a1.94 1.94 0 0 1 .74-1.67 3.19 3.19 0 0 1 2-.56 3.09 3.09 0 0 1 1.76.47 1.87 1.87 0 0 1 .69 1.67v3.54a.43.43 0 0 0 .48.53.56.56 0 0 0 .25-.05zm2.65 1.07a3.26 3.26 0 0 1-.69 1.14 1.62 1.62 0 0 1-1.06.29 2.72 2.72 0 0 1-.62-.05v-.68a4.13 4.13 0 0 0 .55.05.84.84 0 0 0 .77-.32 6.1 6.1 0 0 0 .39-.72l.28-.76-2.66-6.64h.88l2.18 5.67 2.06-5.67h.81z"/></svg>