<svg height="250.11" viewBox="0 0 30 250.11" width="30" xmlns="http://www.w3.org/2000/svg"><g fill="#34473d"><path d="m24.96 6.68c.36.38.54.81.54 1.31v7.03c0 .72-.08 1.41-.23 2.06l-1.27 5.3c-.09.5-.35.91-.77 1.24s-.88.49-1.38.49h-9.28c-.34 0-.68-.08-1.01-.23-.33-.16-.6-.39-.82-.7l-5.86-8.06c-.31-.44-.43-.91-.35-1.43s.33-.92.75-1.22.89-.41 1.41-.33.91.32 1.2.73l1.5 2.06v-11.06c0-.5.18-.94.54-1.31s.8-.56 1.31-.56.96.19 1.34.56.56.83.56 1.36v8.2h.38v-10.12c0-.5.18-.94.54-1.31s.8-.56 1.31-.56.96.19 1.34.56.56.83.56 1.36v10.08h.38v-8.31c0-.5.18-.94.54-1.31s.8-.56 1.31-.56.96.19 1.34.56.56.83.56 1.36v8.25h.38v-4.08c0-.53.19-.98.56-1.36s.83-.56 1.36-.56c.5 0 .93.19 1.29.56z"/><path d="m12.82 74.03c.61 0 1.2-.17 1.78-.51l-2.64 6.5c-.1.27-.3.43-.58.48-.29.05-.53-.03-.74-.23l-1.88-1.93-2.64.1c-.3 0-.54-.12-.71-.36s-.2-.49-.1-.76l2.34-5.69c.41.34.83.58 1.27.71l.81.2c.07.03.13.07.2.1l.25.3c.74.71 1.62 1.07 2.64 1.07zm4.57-1.65c-.47.05-.91-.04-1.32-.28-.3-.2-.66-.3-1.07-.3s-.76.1-1.07.3c-.41.24-.85.33-1.32.28s-.88-.25-1.22-.58l-.25-.25c-.27-.27-.58-.46-.91-.56l-.81-.2c-.34-.1-.63-.29-.89-.56-.25-.27-.43-.58-.53-.91l-.2-.81c-.1-.37-.29-.68-.56-.91l-.56-.61c-.27-.27-.45-.58-.53-.94s-.09-.7-.03-1.04l.25-.81c.07-.37.07-.73 0-1.07l-.25-.81c-.07-.37-.06-.74.03-1.09.08-.36.26-.67.53-.94l.56-.56c.27-.27.46-.59.56-.96l.2-.81c.1-.34.28-.64.53-.91s.55-.46.89-.56l.81-.2c.34-.1.64-.27.91-.51l.56-.61c.27-.27.58-.45.94-.53s.7-.09 1.04-.03l.81.25c.34.07.68.07 1.02 0l.81-.25c.34-.07.69-.06 1.04.03.36.08.67.26.94.53l.56.61c.27.24.58.41.91.51l.81.2c.34.1.63.29.89.56.25.27.43.58.53.91l.2.81c.1.37.29.69.56.96l.56.56c.27.27.45.58.53.94s.09.72.03 1.09l-.25.81c-.07.34-.07.69 0 1.07l.25.81c.07.34.06.69-.03 1.04-.08.36-.26.67-.53.94l-.56.61c-.27.27-.46.58-.56.91l-.2.81c-.1.34-.28.64-.53.91s-.55.46-.89.56l-.81.2c-.34.1-.64.29-.91.56l-.25.25c-.34.34-.75.53-1.22.58zm-5.76-5.46c.93.95 2.06 1.42 3.38 1.42s2.45-.47 3.38-1.42 1.4-2.1 1.4-3.45-.47-2.5-1.4-3.45-2.06-1.42-3.38-1.42-2.45.47-3.38 1.42-1.4 2.1-1.4 3.45.46 2.51 1.4 3.45zm12.97 11.17c-.17.24-.41.36-.71.36l-2.64-.1-1.88 1.93c-.2.2-.45.28-.74.23s-.48-.21-.58-.48l-2.64-6.5c.58.34 1.17.51 1.78.51 1.02 0 1.9-.36 2.64-1.07l.25-.3c.07-.03.13-.07.2-.1l.81-.2c.44-.13.86-.37 1.27-.71l2.34 5.69c.1.27.07.52-.1.76z"/><path d="m26.67 116.91c.38 1.19.43 2.38.16 3.59-.27 1.2-.84 2.24-1.71 3.12l-9.05 9.38c-.31.31-.67.47-1.08.47s-.77-.16-1.08-.47l-9.05-9.33c-.88-.91-1.45-1.96-1.71-3.16-.27-1.2-.21-2.4.16-3.59.38-1.19 1.05-2.19 2.02-3 .84-.72 1.8-1.17 2.86-1.36s2.11-.11 3.14.23 1.94.92 2.72 1.73l.94.94.94-.94c.78-.81 1.69-1.39 2.72-1.73s2.08-.42 3.14-.23 2.02.64 2.86 1.36c.97.81 1.64 1.81 2.02 3z"/><path d="m10.97 185.42c.81 1.56 1.92 2.88 3.33 3.94h-12.05c-.62 0-1.16-.22-1.59-.66s-.66-.97-.66-1.59v-11.25h10.69c-.62 1.44-.94 2.94-.94 4.5 0 1.81.41 3.5 1.22 5.06zm.28-11.06h-11.2l.09-.33 2.34-7.12c.16-.47.43-.84.82-1.12s.84-.42 1.34-.42h6.61v9zm14.25-1.78c1.38.81 2.47 1.91 3.28 3.28.81 1.38 1.22 2.88 1.22 4.5s-.41 3.12-1.22 4.5-1.91 2.47-3.28 3.28-2.88 1.22-4.5 1.22-3.12-.41-4.5-1.22-2.47-1.91-3.28-3.28c-.81-1.38-1.22-2.88-1.22-4.5s.41-3.12 1.22-4.5 1.91-2.47 3.28-3.28c1.38-.81 2.88-1.22 4.5-1.22s3.12.41 4.5 1.22zm-4.5-3.47c-1.59 0-3.1.32-4.52.96s-2.66 1.52-3.73 2.65v-7.36h6.61c.5 0 .95.14 1.34.42s.66.66.82 1.12l.75 2.3c-.44-.06-.86-.09-1.27-.09zm5.48 8.84c0-.14-.05-.27-.14-.4l-1.22-1.22c-.09-.09-.21-.14-.35-.14s-.26.05-.35.14l-4.55 4.55-2.02-2.02c-.09-.09-.21-.14-.35-.14s-.26.05-.35.14l-1.22 1.22c-.09.09-.14.21-.14.35s.05.26.14.35l3.56 3.61c.09.09.21.14.35.14s.26-.05.35-.14l6.14-6.09c.09-.09.14-.21.14-.35z"/><path d="m28.74 228.05h-10.16c2.64-.69 4.37-1.68 5.15-2.94.55-.9.61-1.94.18-3.01-.3-.74-.73-1.29-1.29-1.65-.54-.35-1.16-.49-1.85-.43-1.33.11-2.84 1.02-4.13 2.48-.84.95-1.53 2.07-2.04 3.26-.51-1.19-1.2-2.31-2.04-3.26-1.29-1.47-2.8-2.37-4.13-2.48-.69-.06-1.31.09-1.85.43-.55.36-.99.91-1.29 1.65-.43 1.07-.37 2.12.18 3.01.78 1.26 2.51 2.25 5.15 2.94h-9.36c-.7 0-1.26.57-1.26 1.26v2.32c0 .7.57 1.26 1.26 1.26h11.59v-4.73h4.29v4.73h11.59c.7 0 1.26-.57 1.26-1.26v-2.32c0-.7-.57-1.26-1.26-1.26zm-17.63-1.32c-2.33-.59-3.86-1.4-4.45-2.35-.32-.52-.34-1.08-.07-1.75.33-.82.84-1.22 1.54-1.22h.17c.96.08 2.15.84 3.2 2.02.95 1.08 1.7 2.4 2.15 3.8-.66-.09-1.57-.25-2.53-.49zm4.43.49c.45-1.4 1.19-2.72 2.15-3.8 1.04-1.18 2.24-1.93 3.2-2.02h.17c.7 0 1.21.4 1.54 1.22.27.67.25 1.23-.07 1.75-.58.95-2.12 1.76-4.45 2.35-.96.24-1.88.4-2.54.49z"/><path d="m2.99 234.3h9.87v15.81h-8.6c-.7 0-1.26-.57-1.26-1.26v-14.54z"/><path d="m27.01 234.3v14.54c0 .7-.57 1.26-1.26 1.26h-8.6v-15.81h9.87z"/></g></svg>