<svg xmlns="http://www.w3.org/2000/svg" width="143.52" height="40"><defs><style>.a{fill:#649646}.b{fill:#f4e5d3}</style></defs><rect class="a" x="11.43" width="120.67" height="40" rx="2.68"/><circle class="a" cx="132.09" cy="20" r="11.43"/><circle class="b" cx="132.09" cy="20" r="3"/><circle class="a" cx="11.43" cy="20" r="11.43"/><circle class="b" cx="11.43" cy="20" r="3"/><path class="b" d="M27.22 26.24a6.19 6.19 0 0 1-1.59-.19 7 7 0 0 1-1.3-.48 5.9 5.9 0 0 1-1-.6 5.33 5.33 0 0 1-.66-.54l1.25-2c.16.15.36.31.59.49a6.42 6.42 0 0 0 .77.51 4.86 4.86 0 0 0 .93.41 3.36 3.36 0 0 0 1.06.16 2.45 2.45 0 0 0 .93-.16 1.5 1.5 0 0 0 .63-.5 1.36 1.36 0 0 0 .23-.81 1.46 1.46 0 0 0-.18-.75 1.89 1.89 0 0 0-.56-.57 6.46 6.46 0 0 0-.89-.49l-1.2-.54a7.29 7.29 0 0 1-1-.51 4 4 0 0 1-.8-.67 2.88 2.88 0 0 1-.56-.87 2.67 2.67 0 0 1-.15-1.13 3.57 3.57 0 0 1 .28-1.33 3.82 3.82 0 0 1 2.08-2 4.26 4.26 0 0 1 1.63-.3 5.22 5.22 0 0 1 1.35.18 7 7 0 0 1 1.26.47 5.13 5.13 0 0 1 1 .64l-1 1.91a3.77 3.77 0 0 0-.73-.5 4.7 4.7 0 0 0-.87-.36 3.34 3.34 0 0 0-.94-.14 2.06 2.06 0 0 0-.9.19 1.4 1.4 0 0 0-.57.5 1.29 1.29 0 0 0-.2.69 1 1 0 0 0 .13.54 1.12 1.12 0 0 0 .37.38 3.88 3.88 0 0 0 .58.31l.74.31c.58.25 1.11.49 1.58.73a6.2 6.2 0 0 1 1.21.8 2.9 2.9 0 0 1 .76 1 3.33 3.33 0 0 1 .27 1.4 3.54 3.54 0 0 1-.57 2 3.5 3.5 0 0 1-1.58 1.29 5.74 5.74 0 0 1-2.38.53zm7.45-.24V13.62h2.43v5.11h4.63v-5.11h2.42V26h-2.42v-5.14H37.1V26zm18.65.24a6 6 0 0 1-2.43-.49 6.2 6.2 0 0 1-2-1.38 6.52 6.52 0 0 1-1.83-4.55 6.52 6.52 0 0 1 1.83-4.55 6.17 6.17 0 0 1 2-1.37 5.87 5.87 0 0 1 2.43-.5 5.81 5.81 0 0 1 2.43.5 6.1 6.1 0 0 1 2 1.37 6.44 6.44 0 0 1 1.34 2.05 6.75 6.75 0 0 1 0 5 6.44 6.44 0 0 1-1.34 2.05 6.13 6.13 0 0 1-2 1.38 6 6 0 0 1-2.43.49zm0-2.34a3.48 3.48 0 0 0 1.45-.3 3.41 3.41 0 0 0 1.15-.85 3.75 3.75 0 0 0 .75-1.29 4.94 4.94 0 0 0 0-3.28 3.75 3.75 0 0 0-.75-1.29 3.41 3.41 0 0 0-1.15-.89 3.65 3.65 0 0 0-2.9 0 3.32 3.32 0 0 0-1.15.85 3.75 3.75 0 0 0-.72 1.33 5.12 5.12 0 0 0 0 3.28 3.75 3.75 0 0 0 .75 1.29 3.32 3.32 0 0 0 1.15.85 3.45 3.45 0 0 0 1.42.3zm9.16 2.1V13.62h4.22a5.37 5.37 0 0 1 2.14.42 3.48 3.48 0 0 1 1.48 1.25 3.75 3.75 0 0 1 .54 2.07 3.9 3.9 0 0 1-.54 2.1 3.59 3.59 0 0 1-1.48 1.33 4.77 4.77 0 0 1-2.14.46h-1.79V26zm2.43-6.69h1a3.42 3.42 0 0 0 1.17-.19 1.8 1.8 0 0 0 .87-.6 1.68 1.68 0 0 0 .33-1.08 1.72 1.72 0 0 0-.33-1.1 1.85 1.85 0 0 0-.87-.59 3.68 3.68 0 0 0-1.08-.18h-1zM78 26V13.62h2.43L85.8 22v-8.38h2.43V26H85.8l-5.33-8.33V26zm19.4.24a6 6 0 0 1-2.4-.49 6.13 6.13 0 0 1-2-1.38 6.62 6.62 0 0 1-1.34-2.05 6.75 6.75 0 0 1 0-5A6.62 6.62 0 0 1 93 15.27a6.1 6.1 0 0 1 2-1.37 5.81 5.81 0 0 1 2.43-.5 5.87 5.87 0 0 1 2.43.5 6.21 6.21 0 0 1 2 1.37 6.62 6.62 0 0 1 1.34 2.05 6.75 6.75 0 0 1 0 5 6.62 6.62 0 0 1-1.34 2.05 6.24 6.24 0 0 1-2 1.38 6 6 0 0 1-2.46.49zm0-2.34a3.5 3.5 0 0 0 1.46-.3 3.28 3.28 0 0 0 1.14-.85 3.77 3.77 0 0 0 .76-1.29 5.12 5.12 0 0 0 0-3.28 3.77 3.77 0 0 0-.76-1.29 3.28 3.28 0 0 0-1.15-.89 3.5 3.5 0 0 0-1.46-.3A3.44 3.44 0 0 0 96 16a3.32 3.32 0 0 0-1.15.85 3.77 3.77 0 0 0-.85 1.33 5.3 5.3 0 0 0 0 3.28 3.77 3.77 0 0 0 .76 1.29 3.32 3.32 0 0 0 1.24.85 3.44 3.44 0 0 0 1.39.3zm10.87 2.1l-3.56-12.38h2.7l2.34 9.05 2.64-9.05h1.82l2.64 9.05 2.34-9.05h2.7L118.32 26h-2.7l-2.32-7.69L111 26z"/></svg>